<svg width="250" height="250" viewBox="0 0 250 250" fill="none" xmlns="http://www.w3.org/2000/svg">
<rect width="250" height="250" rx="64" fill="#FA4C14"/>
<path d="M142.516 37.1239C143.138 37.5067 143.761 37.8888 144.384 38.2701C145.639 39.0391 146.893 39.811 148.145 40.5851C150.659 42.1347 153.2 43.6327 155.742 45.1308C160.36 47.8639 164.963 50.6224 169.564 53.3867C173.557 55.7855 177.555 58.1737 181.562 60.5467C185.696 62.996 189.824 65.4557 193.947 67.9263C194.56 68.2936 195.173 68.6607 195.786 69.0276C206.871 75.6609 215.622 81.5217 219.811 94.9445C220.307 97.0246 220.463 98.9609 220.479 101.09C220.484 101.473 220.488 101.857 220.493 102.252C220.5 103.058 220.505 103.864 220.507 104.671C220.513 105.889 220.538 107.106 220.563 108.324C220.625 113.936 219.862 118.033 216.207 122.314C213.833 124.614 211.003 126.133 208.172 127.725C207.045 128.373 205.918 129.021 204.791 129.669C204.242 129.981 203.693 130.294 203.128 130.616C200.979 131.845 198.848 133.105 196.718 134.37C196.074 134.751 195.43 135.132 194.786 135.512C194.348 135.771 193.91 136.03 193.459 136.297C193.801 136.506 194.142 136.715 194.494 136.93C196.069 137.892 197.643 138.856 199.218 139.819C200.023 140.311 200.023 140.311 200.845 140.813C202.435 141.786 204.022 142.762 205.609 143.739C206.094 144.034 206.578 144.329 207.077 144.633C207.524 144.908 207.971 145.183 208.431 145.467C208.823 145.707 209.215 145.947 209.619 146.194C212.596 148.272 214.468 151.251 215.228 154.902C215.705 158.665 215.212 162.325 213.203 165.534C210.357 168.698 206.949 170.702 203.331 172.744C202.197 173.397 201.063 174.051 199.93 174.706C199.357 175.036 198.784 175.367 198.193 175.707C195.578 177.233 193 178.824 190.421 180.418C185.834 183.246 181.211 185.999 176.565 188.718C172.595 191.043 168.642 193.397 164.697 195.768C164.404 195.944 164.111 196.12 163.809 196.301C162.318 197.197 160.828 198.093 159.337 198.99C157.475 200.11 155.613 201.229 153.751 202.348C153.287 202.627 153.287 202.627 152.814 202.911C151.293 203.825 149.771 204.737 148.247 205.648C145.764 207.132 143.284 208.619 140.827 210.152C137.376 212.291 134.261 214.213 130.175 214.44C129.684 214.475 129.684 214.475 129.183 214.512C120.94 215.055 115.294 212.443 108.352 208.021C105.531 206.232 102.65 204.558 99.7677 202.878C95.5516 200.413 91.3655 197.904 87.2059 195.336C82.3487 192.339 77.4394 189.453 72.5069 186.595C68.1194 184.046 63.7788 181.421 59.4578 178.75C56.9185 177.181 54.3686 175.646 51.7823 174.165C48.2684 172.146 45.0384 169.995 42.0847 167.129C41.5581 166.619 41.5581 166.619 41.0208 166.099C34.8179 159.46 32.1874 150.398 32.2676 141.315C32.2758 140.215 32.2677 139.116 32.258 138.016C32.2449 132.078 32.9077 128.532 36.8288 124.153C38.9365 122.15 41.3114 120.751 43.7934 119.32C44.3223 119.005 44.8513 118.691 45.3963 118.367C46.9879 117.424 48.5857 116.494 50.185 115.565C51.1254 115.013 52.0654 114.46 53.0051 113.906C55.0973 112.677 57.1953 111.459 59.2979 110.25C58.0325 109.224 56.7703 108.309 55.3743 107.492C54.8313 107.174 54.2883 106.856 53.7289 106.528C56.2603 103.871 56.2603 103.871 57.5259 102.608C60.1327 99.7341 61.6468 97.0031 62.8417 93.2389C64.6361 93.9537 66.2884 94.7871 67.9618 95.7723C68.4621 96.0663 68.9624 96.3603 69.4779 96.6632C70.0133 96.9804 70.5486 97.2977 71.1002 97.6245C71.6604 97.9551 72.2206 98.2857 72.7978 98.6263C77.1163 101.183 81.4028 103.796 85.6794 106.429C90.5594 109.431 95.4841 112.346 100.412 115.26C104.021 117.399 107.62 119.558 111.213 121.728C112.43 122.46 113.651 123.184 114.873 123.907C123.204 128.875 130.453 135.47 133.195 145.531C133.765 148.003 134.226 150.226 134.226 152.776C140.47 149.135 146.7 145.473 152.863 141.679C157.258 138.974 161.665 136.293 166.089 133.639C166.387 133.46 166.685 133.282 166.992 133.097C171.182 130.585 175.386 128.101 179.6 125.632C184.059 123.02 188.498 120.371 192.921 117.692C193.726 117.204 193.726 117.204 194.547 116.707C197.422 114.961 200.276 113.186 203.099 111.348C204.091 110.781 204.091 110.781 205.103 110.781C204.947 102.882 204.698 96.9048 199.379 90.849C197.074 88.5988 194.437 87.1707 191.655 85.6639C190.741 85.1525 189.828 84.6371 188.915 84.1217C188.296 83.7724 187.677 83.4244 187.057 83.0775C184.06 81.3988 181.131 79.6049 178.208 77.7899C174.122 75.2662 170.01 72.8011 165.867 70.3809C161.2 67.6537 156.576 64.8581 151.97 62.0179C147.699 59.391 143.388 56.8441 139.059 54.3234C136.241 52.6794 133.461 50.992 130.718 49.2142C128.583 47.9358 126.501 47.6135 124.1 48.0545C122.024 48.9772 120.119 50.1675 118.183 51.3769C117.624 51.7162 117.065 52.0555 116.489 52.405C115.345 53.1002 114.202 53.799 113.062 54.5015C111.21 55.6404 109.346 56.7565 107.48 57.8693C105.254 59.1978 103.033 60.5379 100.812 61.8756C98.492 63.272 96.1716 64.6675 93.8507 66.0618C93.5516 66.2416 93.2525 66.4213 92.9443 66.6065C88.1095 69.5108 83.2546 72.3754 78.3879 75.2203C74.8777 77.2778 71.4003 79.3861 67.9664 81.5813C66.4327 82.5493 65.0946 83.2748 63.348 83.6705C63.1992 83.0815 63.1992 83.0815 63.0474 82.4807C61.8224 78.1174 59.947 74.9874 57.2728 71.4441C56.9387 70.9178 56.6045 70.3916 56.2603 69.8494C59.7673 67.2778 63.4245 65.089 67.1767 62.9388C68.4005 62.2326 69.6231 61.5241 70.8451 60.8145C71.3057 60.5471 71.3057 60.5471 71.7755 60.2743C74.7517 58.5409 77.691 56.7436 80.6244 54.9318C84.7108 52.4093 88.8225 49.9432 92.9647 47.5229C99.639 43.6212 106.296 39.6648 112.814 35.4801C123.378 28.6976 132.237 30.6777 142.516 37.1239Z" fill="#FEFDFC"/>
<path d="M48.2092 137.359C53.7587 140.141 59.0688 143.298 64.3903 146.528C66.8886 148.041 69.3939 149.541 71.8987 151.042C73.4113 151.949 74.9235 152.856 76.4356 153.764C77.0488 154.132 77.6619 154.499 78.2751 154.867C78.5779 155.049 78.8808 155.231 79.1928 155.418C79.4936 155.598 79.7943 155.779 80.1041 155.965C80.7 156.322 81.2958 156.68 81.8916 157.037C82.3304 157.3 82.3304 157.3 82.778 157.569C83.3674 157.923 83.9568 158.276 84.5462 158.63C86.0128 159.51 87.4795 160.39 88.9463 161.27C91.6759 162.907 94.4049 164.545 97.1316 166.187C98.3974 166.949 99.6635 167.711 100.93 168.473C101.806 169 102.682 169.528 103.558 170.057C105.187 171.036 106.82 172.008 108.455 172.975C108.889 173.235 108.889 173.235 109.332 173.499C110.208 174.021 111.089 174.535 111.969 175.05C112.485 175.353 113.001 175.657 113.533 175.97C116.599 177.452 120.53 177.916 123.793 176.847C126.916 175.508 129.871 173.964 132.819 172.244C133.299 171.967 133.779 171.69 134.273 171.405C138.285 169.074 142.241 166.646 146.192 164.203C150.828 161.346 155.531 158.626 160.252 155.928C163.197 154.24 166.108 152.515 168.964 150.663C169.472 150.336 169.981 150.008 170.504 149.67C171.449 149.055 172.388 148.431 173.321 147.796C173.946 147.389 173.946 147.389 174.584 146.974C174.942 146.733 175.299 146.492 175.667 146.243C177.718 145.559 179.338 146.663 181.172 147.632C181.612 147.896 182.052 148.16 182.505 148.431C182.997 148.725 183.49 149.019 183.998 149.322C184.505 149.628 185.012 149.935 185.534 150.25C186.283 150.697 186.283 150.697 187.047 151.154C190.24 153.066 193.402 155.028 196.546 157.028C195.896 159.076 195.281 159.215 193.498 160.224C192.956 160.534 192.414 160.845 191.856 161.165C191.564 161.33 191.272 161.494 190.971 161.664C189.405 162.546 187.847 163.445 186.288 164.341C185.964 164.527 185.64 164.712 185.306 164.904C181.917 166.847 178.567 168.861 175.219 170.882C170.742 173.581 166.25 176.251 161.74 178.889C157.118 181.594 152.539 184.369 147.976 187.181C144.149 189.534 140.296 191.832 136.426 194.106C135.887 194.423 135.347 194.74 134.791 195.067C127.88 199.115 127.88 199.115 124.149 198.491C122.868 197.87 122.868 197.87 121.531 197.063C121.043 196.772 120.555 196.482 120.052 196.183C119.566 195.892 119.081 195.601 118.58 195.302C117.731 194.817 116.88 194.335 116.027 193.857C110.605 190.783 105.252 187.608 99.9405 184.329C96.2743 182.07 92.5816 179.867 88.8689 177.693C84.1788 174.947 79.5048 172.175 74.8476 169.368C73.0078 168.26 71.164 167.159 69.317 166.064C68.0464 165.311 66.777 164.555 65.5076 163.799C64.8921 163.433 64.2762 163.069 63.6597 162.705C50.4641 154.914 50.4641 154.914 48.2092 146.928C48.0401 145.248 48.0638 143.598 48.1143 141.911C48.1211 141.471 48.128 141.032 48.1351 140.579C48.1528 139.506 48.18 138.432 48.2092 137.359Z" fill="#FA4D16"/>
<path d="M76.4484 119.659C78.0312 120.341 79.4628 121.112 80.9427 122.012C81.5001 122.349 82.0574 122.685 82.6317 123.032C83.2329 123.4 83.834 123.767 84.4351 124.134C85.0609 124.513 85.6867 124.893 86.3128 125.272C87.2877 125.862 88.2625 126.453 89.2366 127.044C91.5216 128.432 93.8131 129.807 96.109 131.175C96.7417 131.553 97.3745 131.93 98.0072 132.308C99.1987 133.018 100.391 133.728 101.583 134.437C116.364 143.274 116.364 143.274 118.296 150.624C118.811 153.971 118.653 157.368 118.545 160.747C114.528 158.698 110.644 156.498 106.806 154.102C102.563 151.477 98.2954 148.907 93.991 146.394C89.3035 143.655 84.6558 140.852 80.0318 137.997C77.4351 136.397 74.8282 134.821 72.1977 133.283C71.3922 132.811 71.3922 132.811 70.5704 132.33C69.5416 131.73 68.5112 131.132 67.4789 130.539C67.0195 130.27 66.5602 130.002 66.0869 129.726C65.6817 129.492 65.2765 129.258 64.859 129.017C63.868 128.32 63.868 128.32 62.8555 126.725C64.2158 125.883 65.5765 125.042 66.9373 124.2C67.3181 123.965 67.6989 123.729 68.0912 123.486C68.8505 123.017 69.6117 122.55 70.3746 122.087C71.0713 121.653 71.7576 121.2 72.4288 120.723C74.6553 119.192 74.6553 119.192 76.4484 119.659Z" fill="#FA4E16"/>
<path d="M48.7146 83.4897C50.9414 85.1467 52.6716 87.4045 53.7219 90.0493C54.2682 93.4911 53.6869 96.4463 52.0686 99.4724C50.1665 102.09 47.7629 103.594 44.6684 104.118C41.1235 104.244 38.8452 103.504 36.1607 101.013C33.5644 97.9187 32.7761 95.6029 32.8265 91.5486C33.1131 88.4442 34.5683 86.6306 36.6986 84.5674C40.3767 81.4926 44.6337 81.1195 48.7146 83.4897Z" fill="#FEFCFB"/>
</svg>
