<svg width="109" height="31" viewBox="0 0 109 31" fill="none" xmlns="http://www.w3.org/2000/svg">
<path d="M26.6652 7.43693L15.9992 1.28797C15.5372 1.02065 15.013 0.879883 14.4793 0.879883C13.9456 0.879883 13.4213 1.02065 12.9594 1.28797L3.75458 6.62098C3.74134 6.62908 3.73041 6.64045 3.72282 6.65399C3.71523 6.66752 3.71125 6.68279 3.71125 6.69831C3.71125 6.71383 3.71523 6.72909 3.72282 6.74263C3.73041 6.75617 3.74134 6.76753 3.75458 6.77564C4.29646 7.2678 4.66337 7.923 4.79985 8.64219C4.80251 8.65509 4.80811 8.6672 4.81622 8.67757C4.82433 8.68794 4.83474 8.6963 4.84662 8.70198C4.8585 8.70766 4.87153 8.71051 4.8847 8.71032C4.89786 8.71012 4.91081 8.70688 4.92251 8.70085L14.0793 3.42117C14.2071 3.34922 14.3513 3.31141 14.4979 3.31141C14.6446 3.31141 14.7888 3.34922 14.9166 3.42117L25.4599 9.51147C25.7825 9.73557 26.0516 10.0282 26.248 10.3684C26.4444 10.7085 26.5632 11.0879 26.5959 11.4794V12.21C26.5959 12.2686 26.5959 12.7059 26.5959 12.7433L21.7962 15.5271H21.7588L15.7005 19.0416C15.6457 18.2515 15.4057 17.4855 14.9999 16.8055C14.5941 16.1254 14.0339 15.5505 13.3647 15.1271L4.75719 10.1461C4.53566 10.9486 4.01956 11.638 3.31194 12.0766L4.26655 12.6419L1.13074 14.4552C0.768601 14.6796 0.472905 14.9966 0.274162 15.3735C0.0754186 15.7504 -0.019174 16.1734 0.000143662 16.599V17.7136C0.0323285 18.5264 0.261798 19.3191 0.66875 20.0234C1.0757 20.7276 1.64791 21.3223 2.336 21.7561L12.6767 27.729C13.231 28.0472 13.8589 28.2146 14.4979 28.2146C15.137 28.2146 15.7649 28.0472 16.3192 27.729L27.1985 21.4467C27.6056 21.223 27.9154 20.8563 28.0678 20.4175C28.2322 19.973 28.2352 19.4849 28.0763 19.0385C27.9174 18.592 27.6067 18.2156 27.1985 17.975L24.772 16.5724L27.8865 14.7752C28.2483 14.5467 28.5422 14.2252 28.7373 13.8443C28.9324 13.4634 29.0217 13.0371 28.9957 12.61V11.4794C28.9637 10.6672 28.7348 9.87496 28.3289 9.1708C27.9229 8.46665 27.352 7.87163 26.6652 7.43693ZM6.65041 14.0072L12.1647 17.207C12.4891 17.4281 12.7595 17.7192 12.9562 18.0589C13.1528 18.3986 13.2705 18.7782 13.3007 19.1696V20.2095L4.61853 15.1805L6.65041 14.0072ZM25.4013 19.7135L15.1192 25.6492C14.9307 25.7593 14.7163 25.8173 14.4979 25.8173C14.2796 25.8173 14.0652 25.7593 13.8766 25.6492L3.53593 19.6762C3.21399 19.4527 2.94529 19.1609 2.74895 18.8217C2.55262 18.4825 2.43347 18.1041 2.4 17.7136V16.6737L12.1647 22.3107C12.5077 22.5349 12.902 22.6682 13.3106 22.698C13.7192 22.7279 14.1287 22.6533 14.5006 22.4814L14.5913 22.4334L22.3508 17.975L25.4013 19.7135Z" fill="#383F48"/>
<path d="M1.55691 10.7168C2.36688 10.7168 3.02349 10.0602 3.02349 9.25027C3.02349 8.4403 2.36688 7.78369 1.55691 7.78369C0.746941 7.78369 0.090332 8.4403 0.090332 9.25027C0.090332 10.0602 0.746941 10.7168 1.55691 10.7168Z" fill="#383F48"/>
<path d="M61.1777 23.6652C60.3338 23.6876 59.4974 23.5016 58.7426 23.1236C58.0952 22.7969 57.55 22.2988 57.1661 21.6836C56.8046 21.0735 56.6173 20.3759 56.6245 19.6668C56.6027 18.8511 56.8572 18.0519 57.3466 17.399C57.9734 16.6611 58.7987 16.1186 59.7246 15.8357C61.1958 15.3565 62.718 15.0506 64.2602 14.9242C64.2038 15.2263 64.1153 15.5216 63.996 15.8049C63.862 16.1403 63.6543 16.4413 63.3883 16.6856C63.0802 16.9516 62.7002 17.1201 62.2962 17.17C61.721 17.2389 61.1639 17.4151 60.6537 17.6896C60.3138 17.8724 60.0351 18.1511 59.8523 18.491C59.708 18.789 59.6327 19.1156 59.6321 19.4466C59.6272 19.7101 59.6763 19.9718 59.7762 20.2156C59.8762 20.4595 60.0249 20.6803 60.2134 20.8646C60.4139 21.0641 60.6536 21.22 60.9173 21.3223C61.1811 21.4246 61.4631 21.4712 61.7458 21.459C62.3812 21.4491 63.0043 21.2828 63.5601 20.9747C64.2256 20.6025 64.8048 20.0937 65.2598 19.4818V14.5499C65.301 13.6294 65.0173 12.7238 64.4584 11.9914C63.9358 11.325 63.083 10.9933 61.8999 10.9962C61.4029 10.9963 60.9072 11.0464 60.4203 11.1459C59.8213 11.2742 59.2326 11.4464 58.6589 11.6611L57.9411 9.75C58.7239 9.39622 59.5457 9.13608 60.3895 8.97497C61.0629 8.84396 61.7468 8.77468 62.4327 8.76801C64.2499 8.76801 65.6561 9.28469 66.6513 10.3181C67.6465 11.3514 68.15 12.8193 68.1618 14.7216V18.9975C68.1557 19.8329 68.1969 20.6679 68.2851 21.4987C68.3535 22.1312 68.4594 22.759 68.6021 23.379H66.4576C66.2095 23.2334 66.0009 23.0293 65.8499 22.7845C65.7023 22.5267 65.5728 22.2589 65.4624 21.9831L65.4228 21.459L65.1013 21.9566C64.5335 22.5605 63.8468 23.0403 63.0845 23.3658C62.4704 23.5728 61.8257 23.674 61.1777 23.6652ZM72.922 30.1781C72.5233 30.1536 72.1264 30.1066 71.733 30.0372C71.319 29.9755 70.912 29.8737 70.5177 29.7333L71.2222 27.7297C71.5116 27.8087 71.8058 27.869 72.1029 27.9102C72.3732 27.9444 72.6452 27.9621 72.9176 27.9631C73.2335 27.9747 73.548 27.915 73.8377 27.7885C74.1274 27.662 74.3848 27.4718 74.5909 27.2321C75.0878 26.6456 75.4688 25.9702 75.7139 25.2417C76.0338 24.4021 76.3847 23.4333 76.7663 22.3353L81.0113 9.05864H84.0366L78.9813 23.0663C78.585 24.1012 78.2107 25.0479 77.8628 25.9154C77.5518 26.704 77.1623 27.4594 76.7003 28.1701C76.3135 28.7678 75.7954 29.2693 75.1854 29.6364C74.4926 30.0151 73.7112 30.2021 72.922 30.1781ZM75.1238 23.0531L69.9628 9.05864H73.0761L75.8151 17.6324C76.0266 18.2894 76.1293 18.9766 76.119 19.6668C76.1149 20.3275 76.017 20.9843 75.8284 21.6176C75.6942 22.1408 75.4594 22.6329 75.137 23.0663L75.1238 23.0531ZM92.4738 23.6652C91.4787 23.6786 90.4928 23.4742 89.585 23.0663C88.7537 22.6843 88.0169 22.1234 87.4273 21.4238C86.8294 20.7095 86.3735 19.8874 86.0842 19.0019C85.7808 18.0497 85.6321 17.0551 85.6439 16.0559C85.6084 14.7105 85.9032 13.377 86.5026 12.172C87.048 11.1115 87.8893 10.2319 88.9245 9.63991C90.0346 9.03409 91.2843 8.73039 92.5486 8.7592C93.4491 8.74251 94.3389 8.95624 95.1335 9.3801C95.8875 9.78559 96.5256 10.3767 96.9874 11.0975C97.4643 11.8527 97.7569 12.7095 97.8417 13.5987C97.947 14.5974 97.8343 15.607 97.5114 16.5579H89.585C89.7477 16.0334 90.021 15.5498 90.3865 15.1399C90.5783 14.9489 90.8076 14.7998 91.0601 14.702C91.3125 14.6042 91.5824 14.5599 91.8529 14.5719H95.0719C95.164 13.9555 95.0879 13.3256 94.8517 12.7488C94.6482 12.2214 94.2984 11.7631 93.8433 11.4278C93.39 11.0965 92.8413 10.9219 92.28 10.9302C91.5998 10.9235 90.9341 11.1264 90.3733 11.5114C89.7682 11.9412 89.3014 12.538 89.0302 13.2288C88.6829 14.122 88.5181 15.0759 88.5458 16.0339C88.5249 17.0067 88.7095 17.9731 89.0874 18.8698C89.4116 19.6277 89.937 20.2825 90.6067 20.7633C91.2538 21.2081 92.0233 21.4405 92.8084 21.4282C93.4236 21.4301 94.0368 21.3606 94.6359 21.2213C95.3509 21.0259 96.0443 20.7589 96.7056 20.4242L97.4674 22.4542C96.6305 22.8797 95.7426 23.1964 94.8253 23.3966C94.0571 23.5662 93.2736 23.6562 92.487 23.6652H92.4738ZM101.056 23.357V13.5282C101.056 12.7708 101.021 12.0002 100.946 11.2164C100.89 10.4899 100.78 9.76861 100.616 9.05864H102.818C103.082 9.32545 103.285 9.64715 103.412 10.001C103.557 10.3995 103.663 10.8109 103.729 11.2296V11.7712L103.967 11.2296C104.316 10.5326 104.839 9.93783 105.486 9.5034C106.085 9.07794 106.799 8.8459 107.534 8.83846C107.771 8.83823 108.007 8.86183 108.238 8.90892C108.498 8.9496 108.753 9.01447 109 9.10268L108.652 11.5202C108.389 11.4466 108.122 11.3907 107.851 11.3529C107.649 11.3277 107.446 11.3144 107.243 11.3133C106.647 11.3118 106.064 11.4898 105.57 11.8241C105.017 12.2162 104.584 12.7544 104.319 13.3785C103.971 14.2052 103.806 15.0976 103.835 15.9942V23.357H101.056Z" fill="#383F48"/>
<path d="M43.3781 23.3569V3.25024C45.1395 3.25024 46.3945 3.98123 46.3945 6.26668V21.1022H54.4882V23.3569H43.3781Z" fill="#383F48"/>
<path d="M38.715 23.3615C38.0142 23.3615 37.3422 23.0831 36.8467 22.5876C36.3512 22.0921 36.0728 21.4201 36.0728 20.7193V11.7009H39.0761V23.3615H38.715ZM37.5656 9.82054C37.3248 9.8235 37.0859 9.77825 36.8628 9.68745C36.6398 9.59666 36.4371 9.46216 36.2668 9.29187C36.0965 9.12158 35.962 8.91895 35.8713 8.69589C35.7805 8.47284 35.7352 8.23387 35.7382 7.99307C35.7311 7.74843 35.7744 7.50494 35.8653 7.2777C35.9562 7.05046 36.0928 6.84431 36.2666 6.672C36.4365 6.50025 36.6388 6.3639 36.8618 6.27085C37.0848 6.1778 37.324 6.12988 37.5656 6.12988C37.8073 6.12988 38.0465 6.1778 38.2695 6.27085C38.4924 6.3639 38.6947 6.50025 38.8647 6.672C39.0371 6.84515 39.1724 7.05155 39.2625 7.27866C39.3526 7.50577 39.3955 7.74884 39.3887 7.99307C39.3979 8.23759 39.3561 8.48134 39.2659 8.7088C39.1756 8.93625 39.039 9.14241 38.8647 9.31413C38.695 9.4838 38.4919 9.6164 38.2683 9.70357C38.0447 9.79074 37.8054 9.83057 37.5656 9.82054Z" fill="#383F48"/>
</svg>
